{
  "accessors": [
    {
      "bufferView": 2,
      "componentType": 5126,
      "count": 8782,
      "max": [
        3.236328125,
        7.00390625,
        3.068359375
      ],
      "min": [
        0.04296875,
        0.0810546875,
        2.62890625
      ],
      "type": "VEC3"
    },
    {
      "bufferView": 2,
      "byteOffset": 105384,
      "componentType": 5126,
      "count": 8782,
      "max": [
        1.0,
        1.0,
        1.0
      ],
      "min": [
        -1.0,
        -1.0,
        -1.0
      ],
      "type": "VEC3"
    },
    {
      "bufferView": 1,
      "componentType": 5126,
      "count": 8782,
      "max": [
        0.07258599996566772,
        0.03958699852228165
      ],
      "min": [
        -0.1375499963760376,
        -0.07258599996566772
      ],
      "type": "VEC2"
    },
    {
      "bufferView": 0,
      "componentType": 5125,
      "count": 24783,
      "type": "SCALAR"
    },
    {
      "bufferView": 2,
      "byteOffset": 210768,
      "componentType": 5126,
      "count": 8108,
      "max": [
        3.52734375,
        7.28515625,
        3.119140625
      ],
      "min": [
        0.0,
        0.0263671875,
        2.57421875
      ],
      "type": "VEC3"
    },
    {
      "bufferView": 2,
      "byteOffset": 308064,
      "componentType": 5126,
      "count": 8108,
      "max": [
        1.0,
        1.0,
        1.0
      ],
      "min": [
        -1.0,
        -1.0,
        -1.0
      ],
      "type": "VEC3"
    },
    {
      "bufferView": 1,
      "byteOffset": 70256,
      "componentType": 5126,
      "count": 8108,
      "max": [
        0.7258599996566772,
        0.7258599996566772
      ],
      "min": [
        -0.7258599996566772,
        -0.7258599996566772
      ],
      "type": "VEC2"
    },
    {
      "bufferView": 0,
      "byteOffset": 99132,
      "componentType": 5125,
      "count": 21540,
      "type": "SCALAR"
    },
    {
      "bufferView": 2,
      "byteOffset": 405360,
      "componentType": 5126,
      "count": 8579,
      "max": [
        3.58203125,
        5.6435546875,
        3.068359375
      ],
      "min": [
        0.083984375,
        0.1044921875,
        2.62890625
      ],
      "type": "VEC3"
    },
    {
      "bufferView": 2,
      "byteOffset": 508308,
      "componentType": 5126,
      "count": 8579,
      "max": [
        1.0,
        1.0,
        1.0
      ],
      "min": [
        -1.0,
        -1.0,
        -1.0
      ],
      "type": "VEC3"
    },
    {
      "bufferView": 1,
      "byteOffset": 135120,
      "componentType": 5126,
      "count": 8579,
      "max": [
        0.2984350025653839,
        0.29941698908805847
      ],
      "min": [
        -0.2984350025653839,
        -0.2984350025653839
      ],
      "type": "VEC2"
    },
    {
      "bufferView": 0,
      "byteOffset": 185292,
      "componentType": 5125,
      "count": 22266,
      "type": "SCALAR"
    },
    {
      "bufferView": 2,
      "byteOffset": 611256,
      "componentType": 5126,
      "count": 8808,
      "max": [
        3.294921875,
        7.28515625,
        3.119140625
      ],
      "min": [
        3.1328125,
        0.0263671875,
        2.57421875
      ],
      "type": "VEC3"
    },
    {
      "bufferView": 2,
      "byteOffset": 716952,
      "componentType": 5126,
      "count": 8808,
      "max": [
        1.0,
        1.0,
        1.0
      ],
      "min": [
        -1.0,
        -1.0,
        -1.0
      ],
      "type": "VEC3"
    },
    {
      "bufferView": 1,
      "byteOffset": 203752,
      "componentType": 5126,
      "count": 8808,
      "max": [
        0.7258599996566772,
        0.7258599996566772
      ],
      "min": [
        -0.7258599996566772,
        -0.7258599996566772
      ],
      "type": "VEC2"
    },
    {
      "bufferView": 0,
      "byteOffset": 274356,
      "componentType": 5125,
      "count": 25209,
      "type": "SCALAR"
    },
    {
      "bufferView": 2,
      "byteOffset": 822648,
      "componentType": 5126,
      "count": 5598,
      "max": [
        3.24609375,
        7.263671875,
        3.021484375
      ],
      "min": [
        3.162109375,
        0.7744140625,
        2.826171875
      ],
      "type": "VEC3"
    },
    {
      "bufferView": 2,
      "byteOffset": 889824,
      "componentType": 5126,
      "count": 5598,
      "max": [
        1.0,
        1.0,
        1.0
      ],
      "min": [
        -1.0,
        -1.0,
        -1.0
      ],
      "type": "VEC3"
    },
    {
      "bufferView": 1,
      "byteOffset": 274216,
      "componentType": 5126,
      "count": 5598,
      "max": [
        0.016905000433325768,
        0.009103000164031982
      ],
      "min": [
        -0.1375499963760376,
        -0.008709999732673168
      ],
      "type": "VEC2"
    },
    {
      "bufferView": 0,
      "byteOffset": 375192,
      "componentType": 5125,
      "count": 12717,
      "type": "SCALAR"
    },
    {
      "bufferView": 2,
      "byteOffset": 957000,
      "componentType": 5126,
      "count": 1996,
      "max": [
        3.23046875,
        1.40234375,
        3.021484375
      ],
      "min": [
        3.162109375,
        1.2265625,
        2.953125
      ],
      "type": "VEC3"
    },
    {
      "bufferView": 2,
      "byteOffset": 980952,
      "componentType": 5126,
      "count": 1996,
      "max": [
        1.0,
        1.0,
        1.0
      ],
      "min": [
        -1.0,
        -1.0,
        -1.0
      ],
      "type": "VEC3"
    },
    {
      "bufferView": 1,
      "byteOffset": 319000,
      "componentType": 5126,
      "count": 1996,
      "max": [
        0.016905000433325768,
        0.009103000164031982
      ],
      "min": [
        -0.008709999732673168,
        -0.008709999732673168
      ],
      "type": "VEC2"
    },
    {
      "bufferView": 0,
      "byteOffset": 426060,
      "componentType": 5125,
      "count": 4569,
      "type": "SCALAR"
    },
    {
      "bufferView": 2,
      "byteOffset": 1004904,
      "componentType": 5126,
      "count": 9594,
      "max": [
        3.544921875,
        7.23046875,
        2.57421875
      ],
      "min": [
        0.021484375,
        0.0,
        0.0
      ],
      "type": "VEC3"
    },
    {
      "bufferView": 2,
      "byteOffset": 1120032,
      "componentType": 5126,
      "count": 9594,
      "max": [
        1.0,
        1.0,
        1.0
      ],
      "min": [
        -1.0,
        -1.0,
        -1.0
      ],
      "type": "VEC3"
    },
    {
      "bufferView": 1,
      "byteOffset": 334968,
      "componentType": 5126,
      "count": 9594,
      "max": [
        0.6637719869613647,
        0.6637719869613647
      ],
      "min": [
        -0.6664850115776062,
        -0.6637719869613647
      ],
      "type": "VEC2"
    },
    {
      "bufferView": 0,
      "byteOffset": 444336,
      "componentType": 5125,
      "count": 26106,
      "type": "SCALAR"
    },
    {
      "bufferView": 2,
      "byteOffset": 1235160,
      "componentType": 5126,
      "count": 8003,
      "max": [
        3.529296875,
        7.4130859375,
        2.98828125
      ],
      "min": [
        0.021484375,
        0.181640625,
        0.0
      ],
      "type": "VEC3"
    },
    {
      "bufferView": 2,
      "byteOffset": 1331196,
      "componentType": 5126,
      "count": 8003,
      "max": [
        1.0,
        1.0,
        1.0
      ],
      "min": [
        -1.0,
        -1.0,
        -1.0
      ],
      "type": "VEC3"
    },
    {
      "bufferView": 1,
      "byteOffset": 411720,
      "componentType": 5126,
      "count": 8003,
      "max": [
        0.30987000465393066,
        0.3071570098400116
      ],
      "min": [
        -0.30987000465393066,
        -0.3071570098400116
      ],
      "type": "VEC2"
    },
    {
      "bufferView": 0,
      "byteOffset": 548760,
      "componentType": 5125,
      "count": 21819,
      "type": "SCALAR"
    },
    {
      "bufferView": 2,
      "byteOffset": 1427232,
      "componentType": 5126,
      "count": 7125,
      "max": [
        3.478515625,
        1.2568359375,
        2.9765625
      ],
      "min": [
        3.33203125,
        0.31640625,
        1.724609375
      ],
      "type": "VEC3"
    },
    {
      "bufferView": 2,
      "byteOffset": 1512732,
      "componentType": 5126,
      "count": 7125,
      "max": [
        1.0,
        0.9999998211860657,
        0.9999989867210388
      ],
      "min": [
        -1.0,
        -0.9999998211860657,
        -0.9999989867210388
      ],
      "type": "VEC3"
    },
    {
      "bufferView": 1,
      "byteOffset": 475744,
      "componentType": 5126,
      "count": 7125,
      "max": [
        0.13440300524234772,
        0.0249170009046793
      ],
      "min": [
        -0.13440300524234772,
        -0.0195700004696846
      ],
      "type": "VEC2"
    },
    {
      "bufferView": 0,
      "byteOffset": 636036,
      "componentType": 5125,
      "count": 14805,
      "type": "SCALAR"
    },
    {
      "bufferView": 2,
      "byteOffset": 1598232,
      "componentType": 5126,
      "count": 5173,
      "max": [
        3.494140625,
        1.2666015625,
        2.099609375
      ],
      "min": [
        2.8203125,
        0.666015625,
        1.599609375
      ],
      "type": "VEC3"
    },
    {
      "bufferView": 2,
      "byteOffset": 1660308,
      "componentType": 5126,
      "count": 5173,
      "max": [
        1.0,
        1.0,
        1.0
      ],
      "min": [
        -1.0,
        -1.0,
        -1.0
      ],
      "type": "VEC3"
    },
    {
      "bufferView": 1,
      "byteOffset": 532744,
      "componentType": 5126,
      "count": 5173,
      "max": [
        0.025064000859856606,
        0.04292700067162514
      ],
      "min": [
        -0.017602000385522842,
        -0.04292700067162514
      ],
      "type": "VEC2"
    },
    {
      "bufferView": 0,
      "byteOffset": 695256,
      "componentType": 5125,
      "count": 13044,
      "type": "SCALAR"
    },
    {
      "bufferView": 2,
      "byteOffset": 1722384,
      "componentType": 5126,
      "count": 9290,
      "max": [
        3.591796875,
        1.623046875,
        2.123046875
      ],
      "min": [
        1.482421875,
        0.68359375,
        1.576171875
      ],
      "type": "VEC3"
    },
    {
      "bufferView": 2,
      "byteOffset": 1833864,
      "componentType": 5126,
      "count": 9290,
      "max": [
        1.0,
        1.0,
        1.0
      ],
      "min": [
        -1.0,
        -1.0,
        -1.0
      ],
      "type": "VEC3"
    },
    {
      "bufferView": 1,
      "byteOffset": 574128,
      "componentType": 5126,
      "count": 9290,
      "max": [
        181.45338439941406,
        1.0897870063781738
      ],
      "min": [
        -0.06005999818444252,
        -0.5543259978294373
      ],
      "type": "VEC2"
    },
    {
      "bufferView": 0,
      "byteOffset": 747432,
      "componentType": 5125,
      "count": 25107,
      "type": "SCALAR"
    },
    {
      "bufferView": 2,
      "byteOffset": 1945344,
      "componentType": 5126,
      "count": 3250,
      "max": [
        3.26171875,
        7.0498046875,
        2.57421875
      ],
      "min": [
        0.068359375,
        0.4169921875,
        0.6328125
      ],
      "type": "VEC3"
    },
    {
      "bufferView": 2,
      "byteOffset": 1984344,
      "componentType": 5126,
      "count": 3250,
      "max": [
        1.0,
        1.0,
        1.0
      ],
      "min": [
        -1.0,
        -1.0,
        -1.0
      ],
      "type": "VEC3"
    },
    {
      "bufferView": 1,
      "byteOffset": 648448,
      "componentType": 5126,
      "count": 3250,
      "max": [
        0.30987000465393066,
        0.3071570098400116
      ],
      "min": [
        -0.30987000465393066,
        -0.3071570098400116
      ],
      "type": "VEC2"
    },
    {
      "bufferView": 0,
      "byteOffset": 847860,
      "componentType": 5125,
      "count": 8871,
      "type": "SCALAR"
    }
  ],
  "asset": {
    "extras": {
      "author": "tommywu052 (https://sketchfab.com/tommywu052)",
      "license": "CC-BY-4.0 (http://creativecommons.org/licenses/by/4.0/)",
      "source": "https://sketchfab.com/3d-models/conveyor-bde59857c28045d89070ca4fd9391407",
      "title": "Conveyor"
    },
    "generator": "Sketchfab-15.27.0",
    "version": "2.0"
  },
  "bufferViews": [
    {
      "buffer": 0,
      "byteLength": 883344,
      "name": "floatBufferViews",
      "target": 34963
    },
    {
      "buffer": 0,
      "byteLength": 674448,
      "byteOffset": 883344,
      "byteStride": 8,
      "name": "floatBufferViews",
      "target": 34962
    },
    {
      "buffer": 0,
      "byteLength": 2023344,
      "byteOffset": 1557792,
      "byteStride": 12,
      "name": "floatBufferViews",
      "target": 34962
    }
  ],
  "buffers": [
    {
      "byteLength": 3581136,
      "uri": "scene.bin"
    }
  ],
  "materials": [
    {
      "doubleSided": true,
      "name": "105105105",
      "pbrMetallicRoughness": {
        "baseColorFactor": [
          0.411765,
          0.411765,
          0.411765,
          1.0
        ],
        "metallicFactor": 0.0
      }
    },
    {
      "doubleSided": true,
      "name": "244244244",
      "pbrMetallicRoughness": {
        "baseColorFactor": [
          0.956863,
          0.956863,
          0.956863,
          1.0
        ],
        "metallicFactor": 0.0,
        "roughnessFactor": 0.461916392554387
      }
    }
  ],
  "meshes": [
    {
      "name": "Object_0",
      "primitives": [
        {
          "attributes": {
            "NORMAL": 1,
            "POSITION": 0,
            "TEXCOORD_0": 2
          },
          "indices": 3,
          "material": 0,
          "mode": 4
        }
      ]
    },
    {
      "name": "Object_1",
      "primitives": [
        {
          "attributes": {
            "NORMAL": 5,
            "POSITION": 4,
            "TEXCOORD_0": 6
          },
          "indices": 7,
          "material": 0,
          "mode": 4
        }
      ]
    },
    {
      "name": "Object_2",
      "primitives": [
        {
          "attributes": {
            "NORMAL": 9,
            "POSITION": 8,
            "TEXCOORD_0": 10
          },
          "indices": 11,
          "material": 0,
          "mode": 4
        }
      ]
    },
    {
      "name": "Object_3",
      "primitives": [
        {
          "attributes": {
            "NORMAL": 13,
            "POSITION": 12,
            "TEXCOORD_0": 14
          },
          "indices": 15,
          "material": 0,
          "mode": 4
        }
      ]
    },
    {
      "name": "Object_4",
      "primitives": [
        {
          "attributes": {
            "NORMAL": 17,
            "POSITION": 16,
            "TEXCOORD_0": 18
          },
          "indices": 19,
          "material": 0,
          "mode": 4
        }
      ]
    },
    {
      "name": "Object_5",
      "primitives": [
        {
          "attributes": {
            "NORMAL": 21,
            "POSITION": 20,
            "TEXCOORD_0": 22
          },
          "indices": 23,
          "material": 0,
          "mode": 4
        }
      ]
    },
    {
      "name": "Object_6",
      "primitives": [
        {
          "attributes": {
            "NORMAL": 25,
            "POSITION": 24,
            "TEXCOORD_0": 26
          },
          "indices": 27,
          "material": 1,
          "mode": 4
        }
      ]
    },
    {
      "name": "Object_7",
      "primitives": [
        {
          "attributes": {
            "NORMAL": 29,
            "POSITION": 28,
            "TEXCOORD_0": 30
          },
          "indices": 31,
          "material": 1,
          "mode": 4
        }
      ]
    },
    {
      "name": "Object_8",
      "primitives": [
        {
          "attributes": {
            "NORMAL": 33,
            "POSITION": 32,
            "TEXCOORD_0": 34
          },
          "indices": 35,
          "material": 1,
          "mode": 4
        }
      ]
    },
    {
      "name": "Object_9",
      "primitives": [
        {
          "attributes": {
            "NORMAL": 37,
            "POSITION": 36,
            "TEXCOORD_0": 38
          },
          "indices": 39,
          "material": 1,
          "mode": 4
        }
      ]
    },
    {
      "name": "Object_10",
      "primitives": [
        {
          "attributes": {
            "NORMAL": 41,
            "POSITION": 40,
            "TEXCOORD_0": 42
          },
          "indices": 43,
          "material": 1,
          "mode": 4
        }
      ]
    },
    {
      "name": "Object_11",
      "primitives": [
        {
          "attributes": {
            "NORMAL": 45,
            "POSITION": 44,
            "TEXCOORD_0": 46
          },
          "indices": 47,
          "material": 1,
          "mode": 4
        }
      ]
    }
  ],
  "nodes": [
    {
      "children": [
        1
      ],
      "matrix": [
        1.0,
        0.0,
        0.0,
        0.0,
        0.0,
        2.220446049250313e-16,
        -1.0,
        0.0,
        0.0,
        1.0,
        2.220446049250313e-16,
        0.0,
        0.0,
        0.0,
        0.0,
        1.0
      ],
      "name": "Sketchfab_model"
    },
    {
      "children": [
        2
      ],
      "matrix": [
        1.0,
        0.0,
        0.0,
        0.0,
        0.0,
        1.0,
        0.0,
        0.0,
        0.0,
        0.0,
        1.0,
        0.0,
        -28138.76953125,
        -9066.064453125,
        22545.064453125,
        1.0
      ],
      "name": "skfb_offset"
    },
    {
      "children": [
        3,
        4,
        5,
        6,
        7,
        8,
        9,
        10,
        11,
        12,
        13,
        14
      ],
      "name": "Object_2"
    },
    {
      "mesh": 0,
      "name": "Object_3"
    },
    {
      "mesh": 1,
      "name": "Object_4"
    },
    {
      "mesh": 2,
      "name": "Object_5"
    },
    {
      "mesh": 3,
      "name": "Object_6"
    },
    {
      "mesh": 4,
      "name": "Object_7"
    },
    {
      "mesh": 5,
      "name": "Object_8"
    },
    {
      "mesh": 6,
      "name": "Object_9"
    },
    {
      "mesh": 7,
      "name": "Object_10"
    },
    {
      "mesh": 8,
      "name": "Object_11"
    },
    {
      "mesh": 9,
      "name": "Object_12"
    },
    {
      "mesh": 10,
      "name": "Object_13"
    },
    {
      "mesh": 11,
      "name": "Object_14"
    }
  ],
  "scene": 0,
  "scenes": [
    {
      "name": "Sketchfab_Scene",
      "nodes": [
        0
      ]
    }
  ]
}
